<svg xmlns="http://www.w3.org/2000/svg" width="800" height="450" viewBox="0 0 800 450">
    <defs>
      <linearGradient id="g" x1="0" x2="1" y1="0" y2="1">
        <stop offset="0%" stop-color="#0f766e"/>
        <stop offset="100%" stop-color="#5eead4"/>
      </linearGradient>
    </defs>
    <rect width="100%" height="100%" fill="url(#g)"/>
    <rect width="100%" height="100%" fill="url(#g)"/>
    <circle cx="727" cy="245" r="84" fill="#ffffff" opacity="0.136"/><circle cx="539" cy="420" r="201" fill="#000000" opacity="0.086"/><circle cx="265" cy="411" r="96" fill="#ffffff" opacity="0.099"/><circle cx="505" cy="186" r="191" fill="#000000" opacity="0.125"/><circle cx="669" cy="144" r="137" fill="#ffffff" opacity="0.155"/><circle cx="284" cy="364" r="203" fill="#000000" opacity="0.145"/><circle cx="185" cy="140" r="173" fill="#ffffff" opacity="0.129"/>
    <path d="M-24,147 C56,107 194,191 274,151" stroke="white" stroke-width="3" opacity="0.125" fill="none"/><path d="M43,221 C123,181 126,190 206,150" stroke="white" stroke-width="4" opacity="0.067" fill="none"/><path d="M2,371 C82,331 135,426 215,386" stroke="white" stroke-width="4" opacity="0.095" fill="none"/><path d="M523,128 C603,88 817,202 897,162" stroke="white" stroke-width="3" opacity="0.094" fill="none"/><path d="M45,251 C125,211 189,250 269,210" stroke="white" stroke-width="4" opacity="0.080" fill="none"/><path d="M478,283 C558,243 627,276 707,236" stroke="white" stroke-width="3" opacity="0.085" fill="none"/><path d="M504,424 C584,384 726,524 806,484" stroke="white" stroke-width="5" opacity="0.139" fill="none"/><path d="M118,334 C198,294 373,355 453,315" stroke="white" stroke-width="4" opacity="0.110" fill="none"/><path d="M298,385 C378,345 535,380 615,340" stroke="white" stroke-width="2" opacity="0.073" fill="none"/><path d="M648,177 C728,137 721,161 801,121" stroke="white" stroke-width="5" opacity="0.121" fill="none"/>
    <path d="M0,351.0 C144.0,279.0 288.0,414.0 416.0,360.0 C560.0,297.0 688.0,405.0 800,333.0 L800,450 L0,450 Z" fill="white" opacity="0.08"/>
    <path d="M0,54.0 C128.0,126.00000000000001 272.0,-20 448.00000000000006,45.0 C608.0,99.0 720.0,0 800,40 L800,0 L0,0 Z" fill="white" opacity="0.08"/>
    </svg>