<svg xmlns="http://www.w3.org/2000/svg" width="800" height="450" viewBox="0 0 800 450">
    <defs>
      <linearGradient id="g" x1="0" x2="1" y1="0" y2="1">
        <stop offset="0%" stop-color="#166534"/>
        <stop offset="100%" stop-color="#bbf7d0"/>
      </linearGradient>
    </defs>
    <rect width="100%" height="100%" fill="url(#g)"/>
    <rect width="100%" height="100%" fill="url(#g)"/>
    <circle cx="290" cy="100" r="109" fill="#ffffff" opacity="0.134"/><circle cx="342" cy="386" r="220" fill="#000000" opacity="0.179"/><circle cx="694" cy="327" r="152" fill="#ffffff" opacity="0.149"/><circle cx="494" cy="31" r="220" fill="#000000" opacity="0.135"/><circle cx="157" cy="21" r="152" fill="#ffffff" opacity="0.167"/><circle cx="176" cy="249" r="142" fill="#000000" opacity="0.097"/><circle cx="148" cy="270" r="135" fill="#ffffff" opacity="0.167"/>
    <path d="M699,72 C779,32 958,35 1038,-5" stroke="white" stroke-width="4" opacity="0.117" fill="none"/><path d="M523,126 C603,86 704,239 784,199" stroke="white" stroke-width="4" opacity="0.131" fill="none"/><path d="M759,210 C839,170 988,310 1068,270" stroke="white" stroke-width="5" opacity="0.129" fill="none"/><path d="M588,357 C668,317 803,364 883,324" stroke="white" stroke-width="5" opacity="0.130" fill="none"/><path d="M766,379 C846,339 1033,418 1113,378" stroke="white" stroke-width="3" opacity="0.075" fill="none"/><path d="M530,170 C610,130 830,195 910,155" stroke="white" stroke-width="3" opacity="0.104" fill="none"/><path d="M-41,336 C39,296 40,403 120,363" stroke="white" stroke-width="2" opacity="0.108" fill="none"/><path d="M-64,69 C16,29 1,160 81,120" stroke="white" stroke-width="5" opacity="0.083" fill="none"/><path d="M181,414 C261,374 372,469 452,429" stroke="white" stroke-width="3" opacity="0.136" fill="none"/><path d="M603,31 C683,-9 742,21 822,-19" stroke="white" stroke-width="2" opacity="0.108" fill="none"/>
    <path d="M0,351.0 C144.0,279.0 288.0,414.0 416.0,360.0 C560.0,297.0 688.0,405.0 800,333.0 L800,450 L0,450 Z" fill="white" opacity="0.08"/>
    <path d="M0,54.0 C128.0,126.00000000000001 272.0,-20 448.00000000000006,45.0 C608.0,99.0 720.0,0 800,40 L800,0 L0,0 Z" fill="white" opacity="0.08"/>
    </svg>