<svg xmlns="http://www.w3.org/2000/svg" width="800" height="450" viewBox="0 0 800 450">
    <defs>
      <linearGradient id="g" x1="0" x2="1" y1="0" y2="1">
        <stop offset="0%" stop-color="#334155"/>
        <stop offset="100%" stop-color="#cbd5e1"/>
      </linearGradient>
    </defs>
    <rect width="100%" height="100%" fill="url(#g)"/>
    <rect width="100%" height="100%" fill="url(#g)"/>
    <circle cx="763" cy="307" r="219" fill="#ffffff" opacity="0.152"/><circle cx="8" cy="385" r="110" fill="#000000" opacity="0.154"/><circle cx="492" cy="247" r="142" fill="#ffffff" opacity="0.107"/><circle cx="597" cy="216" r="98" fill="#000000" opacity="0.125"/><circle cx="322" cy="388" r="212" fill="#ffffff" opacity="0.112"/><circle cx="58" cy="284" r="212" fill="#000000" opacity="0.091"/><circle cx="413" cy="224" r="123" fill="#ffffff" opacity="0.148"/>
    <path d="M272,75 C352,35 563,177 643,137" stroke="white" stroke-width="5" opacity="0.066" fill="none"/><path d="M537,106 C617,66 784,205 864,165" stroke="white" stroke-width="4" opacity="0.081" fill="none"/><path d="M793,206 C873,166 853,274 933,234" stroke="white" stroke-width="2" opacity="0.124" fill="none"/><path d="M305,350 C385,310 464,396 544,356" stroke="white" stroke-width="2" opacity="0.119" fill="none"/><path d="M-79,354 C1,314 171,394 251,354" stroke="white" stroke-width="4" opacity="0.083" fill="none"/><path d="M393,208 C473,168 524,245 604,205" stroke="white" stroke-width="5" opacity="0.119" fill="none"/><path d="M292,54 C372,14 351,88 431,48" stroke="white" stroke-width="4" opacity="0.064" fill="none"/><path d="M777,128 C857,88 839,213 919,173" stroke="white" stroke-width="3" opacity="0.137" fill="none"/><path d="M787,132 C867,92 1085,207 1165,167" stroke="white" stroke-width="3" opacity="0.061" fill="none"/><path d="M385,115 C465,75 677,182 757,142" stroke="white" stroke-width="5" opacity="0.118" fill="none"/>
    <path d="M0,351.0 C144.0,279.0 288.0,414.0 416.0,360.0 C560.0,297.0 688.0,405.0 800,333.0 L800,450 L0,450 Z" fill="white" opacity="0.08"/>
    <path d="M0,54.0 C128.0,126.00000000000001 272.0,-20 448.00000000000006,45.0 C608.0,99.0 720.0,0 800,40 L800,0 L0,0 Z" fill="white" opacity="0.08"/>
    </svg>