<svg xmlns="http://www.w3.org/2000/svg" width="800" height="450" viewBox="0 0 800 450">
    <defs>
      <linearGradient id="g" x1="0" x2="1" y1="0" y2="1">
        <stop offset="0%" stop-color="#92400e"/>
        <stop offset="100%" stop-color="#fcd34d"/>
      </linearGradient>
    </defs>
    <rect width="100%" height="100%" fill="url(#g)"/>
    <rect width="100%" height="100%" fill="url(#g)"/>
    <circle cx="20" cy="446" r="130" fill="#ffffff" opacity="0.153"/><circle cx="233" cy="200" r="164" fill="#000000" opacity="0.081"/><circle cx="128" cy="413" r="84" fill="#ffffff" opacity="0.171"/><circle cx="107" cy="75" r="110" fill="#000000" opacity="0.088"/><circle cx="771" cy="168" r="174" fill="#ffffff" opacity="0.145"/><circle cx="207" cy="297" r="145" fill="#000000" opacity="0.119"/><circle cx="330" cy="318" r="123" fill="#ffffff" opacity="0.143"/>
    <path d="M319,20 C399,-20 597,94 677,54" stroke="white" stroke-width="4" opacity="0.103" fill="none"/><path d="M84,441 C164,401 144,426 224,386" stroke="white" stroke-width="2" opacity="0.063" fill="none"/><path d="M747,83 C827,43 916,186 996,146" stroke="white" stroke-width="2" opacity="0.093" fill="none"/><path d="M258,319 C338,279 400,303 480,263" stroke="white" stroke-width="5" opacity="0.063" fill="none"/><path d="M724,404 C804,364 1008,397 1088,357" stroke="white" stroke-width="3" opacity="0.133" fill="none"/><path d="M83,440 C163,400 216,410 296,370" stroke="white" stroke-width="2" opacity="0.103" fill="none"/><path d="M48,236 C128,196 170,250 250,210" stroke="white" stroke-width="2" opacity="0.110" fill="none"/><path d="M-37,78 C43,38 39,40 119,0" stroke="white" stroke-width="3" opacity="0.070" fill="none"/><path d="M26,37 C106,-3 307,155 387,115" stroke="white" stroke-width="5" opacity="0.105" fill="none"/><path d="M545,425 C625,385 829,521 909,481" stroke="white" stroke-width="5" opacity="0.075" fill="none"/>
    <path d="M0,351.0 C144.0,279.0 288.0,414.0 416.0,360.0 C560.0,297.0 688.0,405.0 800,333.0 L800,450 L0,450 Z" fill="white" opacity="0.08"/>
    <path d="M0,54.0 C128.0,126.00000000000001 272.0,-20 448.00000000000006,45.0 C608.0,99.0 720.0,0 800,40 L800,0 L0,0 Z" fill="white" opacity="0.08"/>
    </svg>