<svg xmlns="http://www.w3.org/2000/svg" width="800" height="450" viewBox="0 0 800 450">
    <defs>
      <linearGradient id="g" x1="0" x2="1" y1="0" y2="1">
        <stop offset="0%" stop-color="#be185d"/>
        <stop offset="100%" stop-color="#f9a8d4"/>
      </linearGradient>
    </defs>
    <rect width="100%" height="100%" fill="url(#g)"/>
    <rect width="100%" height="100%" fill="url(#g)"/>
    <circle cx="286" cy="117" r="197" fill="#ffffff" opacity="0.125"/><circle cx="59" cy="51" r="138" fill="#000000" opacity="0.130"/><circle cx="305" cy="288" r="212" fill="#ffffff" opacity="0.088"/><circle cx="241" cy="230" r="209" fill="#000000" opacity="0.108"/><circle cx="681" cy="85" r="158" fill="#ffffff" opacity="0.168"/><circle cx="561" cy="450" r="212" fill="#000000" opacity="0.112"/><circle cx="534" cy="88" r="82" fill="#ffffff" opacity="0.153"/>
    <path d="M537,103 C617,63 647,216 727,176" stroke="white" stroke-width="5" opacity="0.118" fill="none"/><path d="M792,339 C872,299 1060,335 1140,295" stroke="white" stroke-width="3" opacity="0.094" fill="none"/><path d="M88,20 C168,-20 141,81 221,41" stroke="white" stroke-width="5" opacity="0.131" fill="none"/><path d="M24,430 C104,390 200,445 280,405" stroke="white" stroke-width="2" opacity="0.123" fill="none"/><path d="M580,25 C660,-15 756,104 836,64" stroke="white" stroke-width="5" opacity="0.088" fill="none"/><path d="M-70,400 C10,360 0,467 80,427" stroke="white" stroke-width="4" opacity="0.066" fill="none"/><path d="M699,387 C779,347 835,439 915,399" stroke="white" stroke-width="3" opacity="0.125" fill="none"/><path d="M526,130 C606,90 819,94 899,54" stroke="white" stroke-width="5" opacity="0.113" fill="none"/><path d="M218,296 C298,256 360,394 440,354" stroke="white" stroke-width="2" opacity="0.125" fill="none"/><path d="M246,56 C326,16 331,164 411,124" stroke="white" stroke-width="4" opacity="0.080" fill="none"/>
    <path d="M0,351.0 C144.0,279.0 288.0,414.0 416.0,360.0 C560.0,297.0 688.0,405.0 800,333.0 L800,450 L0,450 Z" fill="white" opacity="0.08"/>
    <path d="M0,54.0 C128.0,126.00000000000001 272.0,-20 448.00000000000006,45.0 C608.0,99.0 720.0,0 800,40 L800,0 L0,0 Z" fill="white" opacity="0.08"/>
    </svg>