<svg xmlns="http://www.w3.org/2000/svg" width="800" height="450" viewBox="0 0 800 450">
    <defs>
      <linearGradient id="g" x1="0" x2="1" y1="0" y2="1">
        <stop offset="0%" stop-color="#b91c1c"/>
        <stop offset="100%" stop-color="#fca5a5"/>
      </linearGradient>
    </defs>
    <rect width="100%" height="100%" fill="url(#g)"/>
    <rect width="100%" height="100%" fill="url(#g)"/>
    <circle cx="217" cy="161" r="206" fill="#ffffff" opacity="0.099"/><circle cx="426" cy="315" r="123" fill="#000000" opacity="0.143"/><circle cx="714" cy="215" r="138" fill="#ffffff" opacity="0.098"/><circle cx="474" cy="213" r="178" fill="#000000" opacity="0.151"/><circle cx="387" cy="113" r="169" fill="#ffffff" opacity="0.130"/><circle cx="33" cy="160" r="141" fill="#000000" opacity="0.169"/><circle cx="462" cy="208" r="96" fill="#ffffff" opacity="0.167"/>
    <path d="M679,260 C759,220 774,295 854,255" stroke="white" stroke-width="5" opacity="0.068" fill="none"/><path d="M120,174 C200,134 281,262 361,222" stroke="white" stroke-width="2" opacity="0.135" fill="none"/><path d="M618,11 C698,-29 873,131 953,91" stroke="white" stroke-width="4" opacity="0.100" fill="none"/><path d="M657,253 C737,213 944,338 1024,298" stroke="white" stroke-width="2" opacity="0.135" fill="none"/><path d="M617,349 C697,309 736,312 816,272" stroke="white" stroke-width="5" opacity="0.073" fill="none"/><path d="M447,298 C527,258 495,351 575,311" stroke="white" stroke-width="5" opacity="0.115" fill="none"/><path d="M606,75 C686,35 725,183 805,143" stroke="white" stroke-width="5" opacity="0.121" fill="none"/><path d="M504,351 C584,311 788,311 868,271" stroke="white" stroke-width="3" opacity="0.136" fill="none"/><path d="M31,388 C111,348 144,484 224,444" stroke="white" stroke-width="4" opacity="0.106" fill="none"/><path d="M277,24 C357,-16 548,-2 628,-42" stroke="white" stroke-width="2" opacity="0.130" fill="none"/>
    <path d="M0,351.0 C144.0,279.0 288.0,414.0 416.0,360.0 C560.0,297.0 688.0,405.0 800,333.0 L800,450 L0,450 Z" fill="white" opacity="0.08"/>
    <path d="M0,54.0 C128.0,126.00000000000001 272.0,-20 448.00000000000006,45.0 C608.0,99.0 720.0,0 800,40 L800,0 L0,0 Z" fill="white" opacity="0.08"/>
    </svg>