<svg xmlns="http://www.w3.org/2000/svg" width="1600" height="420" viewBox="0 0 1600 420">
    <defs>
      <linearGradient id="g" x1="0" x2="1" y1="0" y2="1">
        <stop offset="0%" stop-color="#15803d"/>
        <stop offset="100%" stop-color="#86efac"/>
      </linearGradient>
    </defs>
    <rect width="100%" height="100%" fill="url(#g)"/>
    <rect width="100%" height="100%" fill="url(#g)"/>
    <circle cx="115" cy="46" r="101" fill="#ffffff" opacity="0.116"/><circle cx="346" cy="376" r="158" fill="#000000" opacity="0.105"/><circle cx="434" cy="310" r="89" fill="#ffffff" opacity="0.138"/><circle cx="324" cy="220" r="180" fill="#000000" opacity="0.160"/><circle cx="1042" cy="190" r="219" fill="#ffffff" opacity="0.174"/><circle cx="1028" cy="137" r="89" fill="#000000" opacity="0.167"/><circle cx="745" cy="238" r="161" fill="#ffffff" opacity="0.171"/>
    <path d="M767,269 C847,229 891,372 971,332" stroke="white" stroke-width="3" opacity="0.074" fill="none"/><path d="M-52,90 C28,50 154,94 234,54" stroke="white" stroke-width="4" opacity="0.071" fill="none"/><path d="M952,345 C1032,305 1085,419 1165,379" stroke="white" stroke-width="4" opacity="0.124" fill="none"/><path d="M1517,303 C1597,263 1738,355 1818,315" stroke="white" stroke-width="5" opacity="0.138" fill="none"/><path d="M230,386 C310,346 474,464 554,424" stroke="white" stroke-width="3" opacity="0.112" fill="none"/><path d="M903,142 C983,102 1198,230 1278,190" stroke="white" stroke-width="4" opacity="0.101" fill="none"/><path d="M1255,232 C1335,192 1531,281 1611,241" stroke="white" stroke-width="5" opacity="0.105" fill="none"/><path d="M896,337 C976,297 1049,380 1129,340" stroke="white" stroke-width="3" opacity="0.125" fill="none"/><path d="M1162,137 C1242,97 1447,176 1527,136" stroke="white" stroke-width="5" opacity="0.084" fill="none"/><path d="M538,374 C618,334 684,459 764,419" stroke="white" stroke-width="2" opacity="0.101" fill="none"/>
    <path d="M0,327.6 C288.0,260.4 576.0,386.40000000000003 832.0,336.0 C1120.0,277.2 1376.0,378.0 1600,310.8 L1600,420 L0,420 Z" fill="white" opacity="0.08"/>
    <path d="M0,50.4 C256.0,117.60000000000001 544.0,-20 896.0000000000001,42.0 C1216.0,92.4 1440.0,0 1600,40 L1600,0 L0,0 Z" fill="white" opacity="0.08"/>
    </svg>