<svg xmlns="http://www.w3.org/2000/svg" width="1600" height="420" viewBox="0 0 1600 420">
    <defs>
      <linearGradient id="g" x1="0" x2="1" y1="0" y2="1">
        <stop offset="0%" stop-color="#7c3aed"/>
        <stop offset="100%" stop-color="#c4b5fd"/>
      </linearGradient>
    </defs>
    <rect width="100%" height="100%" fill="url(#g)"/>
    <rect width="100%" height="100%" fill="url(#g)"/>
    <circle cx="464" cy="189" r="176" fill="#ffffff" opacity="0.093"/><circle cx="1443" cy="22" r="101" fill="#000000" opacity="0.094"/><circle cx="1037" cy="107" r="182" fill="#ffffff" opacity="0.144"/><circle cx="940" cy="249" r="196" fill="#000000" opacity="0.119"/><circle cx="1173" cy="98" r="183" fill="#ffffff" opacity="0.089"/><circle cx="479" cy="388" r="85" fill="#000000" opacity="0.150"/><circle cx="1065" cy="208" r="201" fill="#ffffff" opacity="0.170"/>
    <path d="M676,371 C756,331 774,397 854,357" stroke="white" stroke-width="2" opacity="0.068" fill="none"/><path d="M691,317 C771,277 924,304 1004,264" stroke="white" stroke-width="4" opacity="0.113" fill="none"/><path d="M380,353 C460,313 464,440 544,400" stroke="white" stroke-width="3" opacity="0.132" fill="none"/><path d="M1090,413 C1170,373 1202,528 1282,488" stroke="white" stroke-width="2" opacity="0.065" fill="none"/><path d="M900,359 C980,319 1039,356 1119,316" stroke="white" stroke-width="5" opacity="0.136" fill="none"/><path d="M1392,299 C1472,259 1659,332 1739,292" stroke="white" stroke-width="5" opacity="0.105" fill="none"/><path d="M176,81 C256,41 265,177 345,137" stroke="white" stroke-width="4" opacity="0.115" fill="none"/><path d="M1218,253 C1298,213 1515,372 1595,332" stroke="white" stroke-width="3" opacity="0.076" fill="none"/><path d="M628,270 C708,230 813,360 893,320" stroke="white" stroke-width="3" opacity="0.113" fill="none"/><path d="M604,124 C684,84 650,159 730,119" stroke="white" stroke-width="4" opacity="0.087" fill="none"/>
    <path d="M0,327.6 C288.0,260.4 576.0,386.40000000000003 832.0,336.0 C1120.0,277.2 1376.0,378.0 1600,310.8 L1600,420 L0,420 Z" fill="white" opacity="0.08"/>
    <path d="M0,50.4 C256.0,117.60000000000001 544.0,-20 896.0000000000001,42.0 C1216.0,92.4 1440.0,0 1600,40 L1600,0 L0,0 Z" fill="white" opacity="0.08"/>
    </svg>