<svg xmlns="http://www.w3.org/2000/svg" width="1600" height="420" viewBox="0 0 1600 420">
    <defs>
      <linearGradient id="g" x1="0" x2="1" y1="0" y2="1">
        <stop offset="0%" stop-color="#166534"/>
        <stop offset="100%" stop-color="#bbf7d0"/>
      </linearGradient>
    </defs>
    <rect width="100%" height="100%" fill="url(#g)"/>
    <rect width="100%" height="100%" fill="url(#g)"/>
    <circle cx="427" cy="5" r="213" fill="#ffffff" opacity="0.154"/><circle cx="323" cy="122" r="84" fill="#000000" opacity="0.085"/><circle cx="1395" cy="75" r="174" fill="#ffffff" opacity="0.104"/><circle cx="692" cy="238" r="171" fill="#000000" opacity="0.108"/><circle cx="539" cy="176" r="138" fill="#ffffff" opacity="0.174"/><circle cx="422" cy="181" r="160" fill="#000000" opacity="0.102"/><circle cx="1488" cy="261" r="187" fill="#ffffff" opacity="0.103"/>
    <path d="M832,214 C912,174 1122,194 1202,154" stroke="white" stroke-width="4" opacity="0.097" fill="none"/><path d="M799,291 C879,251 1000,366 1080,326" stroke="white" stroke-width="2" opacity="0.092" fill="none"/><path d="M904,9 C984,-31 1044,4 1124,-36" stroke="white" stroke-width="2" opacity="0.103" fill="none"/><path d="M486,271 C566,231 779,269 859,229" stroke="white" stroke-width="2" opacity="0.131" fill="none"/><path d="M138,202 C218,162 202,180 282,140" stroke="white" stroke-width="4" opacity="0.097" fill="none"/><path d="M722,257 C802,217 880,262 960,222" stroke="white" stroke-width="4" opacity="0.103" fill="none"/><path d="M60,120 C140,80 258,159 338,119" stroke="white" stroke-width="4" opacity="0.073" fill="none"/><path d="M692,243 C772,203 904,316 984,276" stroke="white" stroke-width="4" opacity="0.123" fill="none"/><path d="M871,72 C951,32 970,158 1050,118" stroke="white" stroke-width="2" opacity="0.091" fill="none"/><path d="M432,379 C512,339 519,412 599,372" stroke="white" stroke-width="5" opacity="0.065" fill="none"/>
    <path d="M0,327.6 C288.0,260.4 576.0,386.40000000000003 832.0,336.0 C1120.0,277.2 1376.0,378.0 1600,310.8 L1600,420 L0,420 Z" fill="white" opacity="0.08"/>
    <path d="M0,50.4 C256.0,117.60000000000001 544.0,-20 896.0000000000001,42.0 C1216.0,92.4 1440.0,0 1600,40 L1600,0 L0,0 Z" fill="white" opacity="0.08"/>
    </svg>