<svg xmlns="http://www.w3.org/2000/svg" width="1600" height="420" viewBox="0 0 1600 420">
    <defs>
      <linearGradient id="g" x1="0" x2="1" y1="0" y2="1">
        <stop offset="0%" stop-color="#0f766e"/>
        <stop offset="100%" stop-color="#99f6e4"/>
      </linearGradient>
    </defs>
    <rect width="100%" height="100%" fill="url(#g)"/>
    <rect width="100%" height="100%" fill="url(#g)"/>
    <circle cx="1170" cy="16" r="189" fill="#ffffff" opacity="0.128"/><circle cx="30" cy="105" r="198" fill="#000000" opacity="0.161"/><circle cx="568" cy="334" r="121" fill="#ffffff" opacity="0.083"/><circle cx="1003" cy="167" r="99" fill="#000000" opacity="0.105"/><circle cx="1526" cy="184" r="91" fill="#ffffff" opacity="0.122"/><circle cx="284" cy="308" r="170" fill="#000000" opacity="0.118"/><circle cx="580" cy="345" r="147" fill="#ffffff" opacity="0.126"/>
    <path d="M1304,155 C1384,115 1529,149 1609,109" stroke="white" stroke-width="3" opacity="0.097" fill="none"/><path d="M800,314 C880,274 1032,285 1112,245" stroke="white" stroke-width="3" opacity="0.107" fill="none"/><path d="M174,99 C254,59 369,196 449,156" stroke="white" stroke-width="3" opacity="0.089" fill="none"/><path d="M543,341 C623,301 813,412 893,372" stroke="white" stroke-width="4" opacity="0.098" fill="none"/><path d="M927,80 C1007,40 1081,145 1161,105" stroke="white" stroke-width="2" opacity="0.079" fill="none"/><path d="M917,154 C997,114 993,250 1073,210" stroke="white" stroke-width="2" opacity="0.134" fill="none"/><path d="M206,196 C286,156 437,309 517,269" stroke="white" stroke-width="2" opacity="0.072" fill="none"/><path d="M804,85 C884,45 941,134 1021,94" stroke="white" stroke-width="5" opacity="0.095" fill="none"/><path d="M812,125 C892,85 992,121 1072,81" stroke="white" stroke-width="3" opacity="0.109" fill="none"/><path d="M144,136 C224,96 417,173 497,133" stroke="white" stroke-width="3" opacity="0.073" fill="none"/>
    <path d="M0,327.6 C288.0,260.4 576.0,386.40000000000003 832.0,336.0 C1120.0,277.2 1376.0,378.0 1600,310.8 L1600,420 L0,420 Z" fill="white" opacity="0.08"/>
    <path d="M0,50.4 C256.0,117.60000000000001 544.0,-20 896.0000000000001,42.0 C1216.0,92.4 1440.0,0 1600,40 L1600,0 L0,0 Z" fill="white" opacity="0.08"/>
    </svg>